<svg width="74" height="40" viewBox="0 0 74 40" fill="none" xmlns="http://www.w3.org/2000/svg">
<g clip-path="url(#clip0)">
<path d="M53.5869 25.2702V35.1835H52.616V24.5781H48.4916V35.736C48.4916 37.7377 50.0347 39.4033 52.0366 39.5625L52.616 39.6085H53.5869L54.1662 39.5625C56.168 39.4033 57.7112 37.7377 57.7112 35.736V24.9443C57.7112 23.7449 57.3478 22.5734 56.6688 21.5832L53.1102 17.1046C52.7883 16.6351 52.616 16.0793 52.616 15.5105V4.78853H53.5869V16.2198H57.7112V4.23606C57.7112 2.23432 56.168 0.568714 54.1662 0.409578L53.5869 0.363525H52.616L52.0366 0.409578C50.0347 0.568714 48.4916 2.23432 48.4916 4.23606V15.7261C48.4916 16.9029 48.8413 18.0534 49.4966 19.0321L53.1102 23.7023C53.421 24.1666 53.5869 24.7122 53.5869 25.2702Z" fill="#F2F5F6"/>
<path d="M69.1986 25.2702V35.1835H68.228V24.5781H64.1035V35.736C64.1035 37.7377 65.6467 39.4033 67.6487 39.5625L68.228 39.6085H69.1986L69.778 39.5625C71.78 39.4033 73.3233 37.7377 73.3233 35.736V24.9443C73.3233 23.7449 72.96 22.5734 72.2807 21.5832L68.7227 17.1046C68.4 16.6351 68.228 16.0793 68.228 15.5105V4.78853H69.1986V16.2198H73.3233V4.23606C73.3233 2.23432 71.78 0.568714 69.778 0.409578L69.1986 0.363525H68.228L67.6487 0.409578C65.6467 0.568714 64.1035 2.23432 64.1035 4.23606V15.7261C64.1035 16.9029 64.4533 18.0534 65.1087 19.0321L68.7227 23.7023C69.0327 24.1666 69.1986 24.7122 69.1986 25.2702Z" fill="#F2F5F6"/>
<path d="M22.3125 0.691284V39.2806H26.4367V11.0574L26.4486 6.6121H27.415V20.4881L28.5803 39.269H30.2778H31.2629H32.9604L34.1257 20.4881V6.6121H35.0864L35.0981 11.0574V39.2806H39.2226V0.691284H32.4193L31.2647 22.5947V33.227H31.2629H31.2511H30.2897H30.2778H30.276V22.5947L29.1214 0.691284H22.3125Z" fill="#F2F5F6"/>
<path d="M7.94267 22.5947V33.2286H8.90707L8.91887 28.7782V0.691284H13.0431V39.2808H8.43253V39.269H6.24698L5.08187 20.4881V6.6121H4.1361L4.12426 11.0414V39.2808H0V0.691284H4.58991H6.78827L7.94267 22.5947Z" fill="#F2F5F6"/>
<path d="M21.2026 4.45598V0.691284H18.2774H16.9276H14.153V39.2808H16.9276H18.2774H21.2026V35.3986H18.2774V21.6489H21.2026V17.7669H18.2774V4.45598H21.2026Z" fill="#F2F5F6"/>
<path d="M47.3818 4.45598V0.691284H44.4563H43.1067H40.332V39.2808H43.1067H44.4563H47.3818V35.3986H44.4563V21.6489H47.3818V17.7669H44.4563V4.45598H47.3818Z" fill="#F2F5F6"/>
<path d="M58.8215 39.2807H62.9938V0.691406H58.8215V39.2807Z" fill="#F2F5F6"/>
</g>
<defs>
<clipPath id="clip0">
<rect width="73.3333" height="40" fill="white"/>
</clipPath>
</defs>
</svg>
