<svg width="12" height="12" viewBox="0 0 12 12" fill="none" xmlns="http://www.w3.org/2000/svg">
<g clip-path="url(#clip0)">
<path d="M0 0.9C0 0.661305 0.0948212 0.432387 0.263604 0.263604C0.432387 0.0948211 0.661305 0 0.9 0L11.1 0C11.3387 0 11.5676 0.0948211 11.7364 0.263604C11.9052 0.432387 12 0.661305 12 0.9V4.5C12 4.73869 11.9052 4.96761 11.7364 5.1364C11.5676 5.30518 11.3387 5.4 11.1 5.4H7.5666C7.32791 5.4 7.09899 5.30518 6.9302 5.1364C6.76142 4.96761 6.6666 4.73869 6.6666 4.5V3.0666C6.6666 2.97906 6.64936 2.89238 6.61586 2.8115C6.58236 2.73063 6.53326 2.65714 6.47136 2.59524C6.40946 2.53334 6.33597 2.48424 6.2551 2.45074C6.17422 2.41724 6.08754 2.4 6 2.4C5.91246 2.4 5.82578 2.41724 5.7449 2.45074C5.66403 2.48424 5.59054 2.53334 5.52864 2.59524C5.46674 2.65714 5.41764 2.73063 5.38414 2.8115C5.35064 2.89238 5.3334 2.97906 5.3334 3.0666V4.5C5.3334 4.73869 5.23858 4.96761 5.0698 5.1364C4.90101 5.30518 4.67209 5.4 4.4334 5.4H0.9C0.661305 5.4 0.432387 5.30518 0.263604 5.1364C0.0948212 4.96761 0 4.73869 0 4.5L0 0.9Z" fill="#1F1F1F"/>
<path d="M4.2 2.99995C4.2 2.52256 4.38964 2.06472 4.72721 1.72716C5.06478 1.38959 5.52261 1.19995 6 1.19995C6.47739 1.19995 6.93523 1.38959 7.2728 1.72716C7.61036 2.06472 7.8 2.52256 7.8 2.99995V5.63035C7.79998 5.69485 7.82074 5.75765 7.85922 5.80942C7.8977 5.86118 7.95183 5.89917 8.0136 5.91775L9.6306 6.40255C9.97448 6.50579 10.2699 6.72896 10.4633 7.03151C10.6566 7.33406 10.735 7.69592 10.6842 8.05135L10.3044 10.7124C10.2533 11.0698 10.075 11.3967 9.80217 11.6333C9.52939 11.8698 9.18045 12 8.8194 12H4.176C3.88948 12 3.60895 11.918 3.36758 11.7636C3.12621 11.6092 2.93411 11.3889 2.814 11.1288L1.578 8.45035C1.42193 8.11599 1.39919 7.7347 1.5144 7.38415C1.6404 7.01995 1.9458 6.68815 2.424 6.62035C3.045 6.53155 3.6336 6.73495 4.2006 7.11235V2.99995H4.2ZM6 2.39995C5.84087 2.39995 5.68826 2.46317 5.57574 2.57569C5.46322 2.68821 5.4 2.84082 5.4 2.99995V7.67575C5.4 8.50975 4.4346 8.82835 3.8838 8.37175C3.3156 7.90135 2.9298 7.77955 2.6424 7.80295C2.63834 7.85251 2.64701 7.90229 2.6676 7.94755L3.9036 10.6254C3.92757 10.6774 3.96597 10.7216 4.01425 10.7525C4.06252 10.7835 4.11866 10.7999 4.176 10.8H8.82C8.89218 10.7998 8.96188 10.7736 9.01632 10.7262C9.07077 10.6788 9.1063 10.6134 9.1164 10.542L9.4962 7.88155C9.50646 7.81052 9.49091 7.73817 9.45238 7.67762C9.41385 7.61707 9.35489 7.57235 9.2862 7.55155L7.6692 7.06675C7.36023 6.97411 7.08935 6.78434 6.89675 6.5256C6.70415 6.26685 6.60009 5.95291 6.6 5.63035V2.99995C6.6 2.84082 6.53679 2.68821 6.42427 2.57569C6.31174 2.46317 6.15913 2.39995 6 2.39995V2.39995Z" fill="#1F1F1F"/>
</g>
<defs>
<clipPath id="clip0">
<rect width="12" height="12" fill="white"/>
</clipPath>
</defs>
</svg>
