<svg width="68" height="22" viewBox="0 0 68 22" fill="none" xmlns="http://www.w3.org/2000/svg">
<path d="M11 22C4.92487 22 0 17.0751 0 11C0 4.92487 4.92487 0 11 0C17.0751 0 22 4.92487 22 11C22 17.0751 17.0751 22 11 22ZM10.5547 8.03647C10.3904 7.92696 10.1974 7.86853 10 7.86853C9.44771 7.86853 9 8.31625 9 8.86853V13.1315C9 13.3289 9.05844 13.5219 9.16795 13.6862C9.47431 14.1457 10.0952 14.2699 10.5547 13.9635L13.7519 11.8321C13.8618 11.7588 13.956 11.6645 14.0293 11.5547C14.3356 11.0952 14.2115 10.4743 13.7519 10.1679L10.5547 8.03647ZM28 7C28 5.89543 28.8954 5 30 5C31.1046 5 32 5.89543 32 7V15C32 16.1046 31.1046 17 30 17C28.8954 17 28 16.1046 28 15V7ZM37 2C37 0.895431 37.8954 0 39 0C40.1046 0 41 0.895431 41 2V20C41 21.1046 40.1046 22 39 22C37.8954 22 37 21.1046 37 20V2ZM46 7C46 5.89543 46.8954 5 48 5C49.1046 5 50 5.89543 50 7V15C50 16.1046 49.1046 17 48 17C46.8954 17 46 16.1046 46 15V7ZM64 7C64 5.89543 64.8954 5 66 5C67.1046 5 68 5.89543 68 7V15C68 16.1046 67.1046 17 66 17C64.8954 17 64 16.1046 64 15V7ZM55 2C55 0.895431 55.8954 0 57 0C58.1046 0 59 0.895431 59 2V20C59 21.1046 58.1046 22 57 22C55.8954 22 55 21.1046 55 20V2Z" fill="#1F1F1F"/>
</svg>
